<?xml version="1.0" standalone="no"?>
<svg xmlns="http://www.w3.org/2000/svg" width="500" height="500"><defs><clipPath id="clip-path-dot-color"><path d="M 18 146v 16h 8a 8 8, 0, 0, 0, 0 -16" transform="rotate(180,26,154)"/><path d="M 18 178v 16h 16v -8a 8 8, 0, 0, 0, -8 -8" transform="rotate(-90,26,186)"/><path d="M 18 194v 16h 16v -8a 8 8, 0, 0, 0, -8 -8" transform="rotate(180,26,202)"/><path d="M 18 226v 16h 8a 8 8, 0, 0, 0, 0 -16" transform="rotate(-90,26,234)"/><rect x="18" y="242" width="16" height="16" transform="rotate(0,26,250)"/><rect x="18" y="258" width="16" height="16" transform="rotate(0,26,266)"/><path d="M 18 274v 16h 8a 8 8, 0, 0, 0, 0 -16" transform="rotate(90,26,282)"/><circle cx="26" cy="314" r="8" transform="rotate(0,26,314)"/><path d="M 34 146v 16h 8a 8 8, 0, 0, 0, 0 -16" transform="rotate(0,42,154)"/><rect x="34" y="178" width="16" height="16" transform="rotate(0,42,186)"/><rect x="34" y="194" width="16" height="16" transform="rotate(0,42,202)"/><path d="M 34 210v 16h 16v -8a 8 8, 0, 0, 0, -8 -8" transform="rotate(180,42,218)"/><path d="M 50 178v 16h 8a 8 8, 0, 0, 0, 0 -16" transform="rotate(0,58,186)"/><rect x="50" y="210" width="16" height="16" transform="rotate(0,58,218)"/><path d="M 50 258v 16h 8a 8 8, 0, 0, 0, 0 -16" transform="rotate(-90,58,266)"/><path d="M 50 274v 16h 8a 8 8, 0, 0, 0, 0 -16" transform="rotate(90,58,282)"/><path d="M 50 306v 16h 8a 8 8, 0, 0, 0, 0 -16" transform="rotate(-90,58,314)"/><rect x="50" y="322" width="16" height="16" transform="rotate(0,58,330)"/><path d="M 50 338v 16h 16v -8a 8 8, 0, 0, 0, -8 -8" transform="rotate(180,58,346)"/><path d="M 66 162v 16h 8a 8 8, 0, 0, 0, 0 -16" transform="rotate(180,74,170)"/><path d="M 66 194v 16h 8a 8 8, 0, 0, 0, 0 -16" transform="rotate(-90,74,202)"/><rect x="66" y="210" width="16" height="16" transform="rotate(0,74,218)"/><path d="M 66 226v 16h 8a 8 8, 0, 0, 0, 0 -16" transform="rotate(90,74,234)"/><circle cx="74" cy="298" r="8" transform="rotate(0,74,298)"/><rect x="66" y="322" width="16" height="16" transform="rotate(0,74,330)"/><rect x="66" y="338" width="16" height="16" transform="rotate(0,74,346)"/><rect x="82" y="162" width="16" height="16" transform="rotate(0,90,170)"/><path d="M 82 178v 16h 8a 8 8, 0, 0, 0, 0 -16" transform="rotate(90,90,186)"/><circle cx="90" cy="266" r="8" transform="rotate(0,90,266)"/><path d="M 82 306v 16h 16v -8a 8 8, 0, 0, 0, -8 -8" transform="rotate(-90,90,314)"/><rect x="82" y="322" width="16" height="16" transform="rotate(0,90,330)"/><rect x="82" y="338" width="16" height="16" transform="rotate(0,90,346)"/><path d="M 98 162v 16h 8a 8 8, 0, 0, 0, 0 -16" transform="rotate(0,106,170)"/><path d="M 98 210v 16h 16v -8a 8 8, 0, 0, 0, -8 -8" transform="rotate(-90,106,218)"/><path d="M 98 226v 16h 8a 8 8, 0, 0, 0, 0 -16" transform="rotate(90,106,234)"/><path d="M 98 274v 16h 8a 8 8, 0, 0, 0, 0 -16" transform="rotate(180,106,282)"/><rect x="98" y="306" width="16" height="16" transform="rotate(0,106,314)"/><rect x="98" y="338" width="16" height="16" transform="rotate(0,106,346)"/><circle cx="122" cy="154" r="8" transform="rotate(0,122,154)"/><path d="M 114 178v 16h 8a 8 8, 0, 0, 0, 0 -16" transform="rotate(180,122,186)"/><rect x="114" y="210" width="16" height="16" transform="rotate(0,122,218)"/><circle cx="122" cy="250" r="8" transform="rotate(0,122,250)"/><rect x="114" y="274" width="16" height="16" transform="rotate(0,122,282)"/><path d="M 114 306v 16h 8a 8 8, 0, 0, 0, 0 -16" transform="rotate(0,122,314)"/><rect x="114" y="338" width="16" height="16" transform="rotate(0,122,346)"/><path d="M 130 162v 16h 16v -8a 8 8, 0, 0, 0, -8 -8" transform="rotate(-90,138,170)"/><rect x="130" y="178" width="16" height="16" transform="rotate(0,138,186)"/><rect x="130" y="194" width="16" height="16" transform="rotate(0,138,202)"/><rect x="130" y="210" width="16" height="16" transform="rotate(0,138,218)"/><path d="M 130 226v 16h 8a 8 8, 0, 0, 0, 0 -16" transform="rotate(90,138,234)"/><rect x="130" y="274" width="16" height="16" transform="rotate(0,138,282)"/><path d="M 130 322v 16h 16v -8a 8 8, 0, 0, 0, -8 -8" transform="rotate(-90,138,330)"/><path d="M 130 338v 16h 16v -8a 8 8, 0, 0, 0, -8 -8" transform="rotate(90,138,346)"/><circle cx="154" cy="42" r="8" transform="rotate(0,154,42)"/><path d="M 146 114v 16h 8a 8 8, 0, 0, 0, 0 -16" transform="rotate(-90,154,122)"/><rect x="146" y="130" width="16" height="16" transform="rotate(0,154,138)"/><rect x="146" y="146" width="16" height="16" transform="rotate(0,154,154)"/><rect x="146" y="162" width="16" height="16" transform="rotate(0,154,170)"/><rect x="146" y="178" width="16" height="16" transform="rotate(0,154,186)"/><rect x="146" y="194" width="16" height="16" transform="rotate(0,154,202)"/><rect x="146" y="210" width="16" height="16" transform="rotate(0,154,218)"/><path d="M 146 242v 16h 8a 8 8, 0, 0, 0, 0 -16" transform="rotate(180,154,250)"/><rect x="146" y="274" width="16" height="16" transform="rotate(0,154,282)"/><path d="M 146 290v 16h 16v -8a 8 8, 0, 0, 0, -8 -8" transform="rotate(180,154,298)"/><rect x="146" y="322" width="16" height="16" transform="rotate(0,154,330)"/><circle cx="154" cy="362" r="8" transform="rotate(0,154,362)"/><path d="M 146 450v 16h 16v -8a 8 8, 0, 0, 0, -8 -8" transform="rotate(-90,154,458)"/><path d="M 146 466v 16h 8a 8 8, 0, 0, 0, 0 -16" transform="rotate(90,154,474)"/><circle cx="170" cy="26" r="8" transform="rotate(0,170,26)"/><circle cx="170" cy="58" r="8" transform="rotate(0,170,58)"/><path d="M 162 82v 16h 16v -8a 8 8, 0, 0, 0, -8 -8" transform="rotate(-90,170,90)"/><path d="M 162 98v 16h 16v -8a 8 8, 0, 0, 0, -8 -8" transform="rotate(180,170,106)"/><path d="M 162 146v 16h 8a 8 8, 0, 0, 0, 0 -16" transform="rotate(0,170,154)"/><rect x="162" y="194" width="16" height="16" transform="rotate(0,170,202)"/><rect x="162" y="210" width="16" height="16" transform="rotate(0,170,218)"/><rect x="162" y="226" width="16" height="16" transform="rotate(0,170,234)"/><rect x="162" y="242" width="16" height="16" transform="rotate(0,170,250)"/><rect x="162" y="258" width="16" height="16" transform="rotate(0,170,266)"/><rect x="162" y="274" width="16" height="16" transform="rotate(0,170,282)"/><path d="M 162 290v 16h 16v -8a 8 8, 0, 0, 0, -8 -8" transform="rotate(90,170,298)"/><path d="M 162 322v 16h 16v -8a 8 8, 0, 0, 0, -8 -8" transform="rotate(0,170,330)"/><path d="M 162 338v 16h 16v -8a 8 8, 0, 0, 0, -8 -8" transform="rotate(180,170,346)"/><path d="M 162 386v 16h 8a 8 8, 0, 0, 0, 0 -16" transform="rotate(-90,170,394)"/><path d="M 162 402v 16h 16v -8a 8 8, 0, 0, 0, -8 -8" transform="rotate(180,170,410)"/><path d="M 162 434v 16h 16v -8a 8 8, 0, 0, 0, -8 -8" transform="rotate(-90,170,442)"/><path d="M 162 450v 16h 16v -8a 8 8, 0, 0, 0, -8 -8" transform="rotate(90,170,458)"/><circle cx="186" cy="42" r="8" transform="rotate(0,186,42)"/><rect x="178" y="82" width="16" height="16" transform="rotate(0,186,90)"/><rect x="178" y="98" width="16" height="16" transform="rotate(0,186,106)"/><rect x="178" y="114" width="16" height="16" transform="rotate(0,186,122)"/><path d="M 178 130v 16h 8a 8 8, 0, 0, 0, 0 -16" transform="rotate(90,186,138)"/><path d="M 178 178v 16h 8a 8 8, 0, 0, 0, 0 -16" transform="rotate(-90,186,186)"/><rect x="178" y="194" width="16" height="16" transform="rotate(0,186,202)"/><rect x="178" y="210" width="16" height="16" transform="rotate(0,186,218)"/><path d="M 178 226v 16h 16v -8a 8 8, 0, 0, 0, -8 -8" transform="rotate(90,186,234)"/><path d="M 178 338v 16h 16v -8a 8 8, 0, 0, 0, -8 -8" transform="rotate(0,186,346)"/><rect x="178" y="354" width="16" height="16" transform="rotate(0,186,362)"/><path d="M 178 370v 16h 16v -8a 8 8, 0, 0, 0, -8 -8" transform="rotate(180,186,378)"/><rect x="178" y="402" width="16" height="16" transform="rotate(0,186,410)"/><path d="M 178 434v 16h 8a 8 8, 0, 0, 0, 0 -16" transform="rotate(0,186,442)"/><circle cx="202" cy="26" r="8" transform="rotate(0,202,26)"/><path d="M 194 82v 16h 8a 8 8, 0, 0, 0, 0 -16" transform="rotate(0,202,90)"/><path d="M 194 146v 16h 16v -8a 8 8, 0, 0, 0, -8 -8" transform="rotate(-90,202,154)"/><path d="M 194 162v 16h 16v -8a 8 8, 0, 0, 0, -8 -8" transform="rotate(180,202,170)"/><path d="M 194 194v 16h 8a 8 8, 0, 0, 0, 0 -16" transform="rotate(0,202,202)"/><path d="M 194 258v 16h 8a 8 8, 0, 0, 0, 0 -16" transform="rotate(180,202,266)"/><circle cx="202" cy="314" r="8" transform="rotate(0,202,314)"/><rect x="194" y="370" width="16" height="16" transform="rotate(0,202,378)"/><rect x="194" y="386" width="16" height="16" transform="rotate(0,202,394)"/><path d="M 194 402v 16h 16v -8a 8 8, 0, 0, 0, -8 -8" transform="rotate(90,202,410)"/><path d="M 210 114v 16h 8a 8 8, 0, 0, 0, 0 -16" transform="rotate(-90,218,122)"/><rect x="210" y="130" width="16" height="16" transform="rotate(0,218,138)"/><rect x="210" y="146" width="16" height="16" transform="rotate(0,218,154)"/><rect x="210" y="162" width="16" height="16" transform="rotate(0,218,170)"/><circle cx="218" cy="218" r="8" transform="rotate(0,218,218)"/><path d="M 210 242v 16h 16v -8a 8 8, 0, 0, 0, -8 -8" transform="rotate(-90,218,250)"/><path d="M 210 258v 16h 16v -8a 8 8, 0, 0, 0, -8 -8" transform="rotate(90,218,266)"/><path d="M 210 338v 16h 16v -8a 8 8, 0, 0, 0, -8 -8" transform="rotate(-90,218,346)"/><rect x="210" y="354" width="16" height="16" transform="rotate(0,218,362)"/><rect x="210" y="370" width="16" height="16" transform="rotate(0,218,378)"/><path d="M 210 418v 16h 8a 8 8, 0, 0, 0, 0 -16" transform="rotate(180,218,426)"/><path d="M 210 450v 16h 8a 8 8, 0, 0, 0, 0 -16" transform="rotate(180,218,458)"/><circle cx="234" cy="26" r="8" transform="rotate(0,234,26)"/><path d="M 226 50v 16h 8a 8 8, 0, 0, 0, 0 -16" transform="rotate(-90,234,58)"/><rect x="226" y="66" width="16" height="16" transform="rotate(0,234,74)"/><rect x="226" y="82" width="16" height="16" transform="rotate(0,234,90)"/><path d="M 226 98v 16h 16v -8a 8 8, 0, 0, 0, -8 -8" transform="rotate(180,234,106)"/><path d="M 226 162v 16h 16v -8a 8 8, 0, 0, 0, -8 -8" transform="rotate(0,234,170)"/><path d="M 226 178v 16h 16v -8a 8 8, 0, 0, 0, -8 -8" transform="rotate(180,234,186)"/><path d="M 226 226v 16h 16v -8a 8 8, 0, 0, 0, -8 -8" transform="rotate(-90,234,234)"/><path d="M 226 242v 16h 16v -8a 8 8, 0, 0, 0, -8 -8" transform="rotate(90,234,250)"/><path d="M 226 306v 16h 16v -8a 8 8, 0, 0, 0, -8 -8" transform="rotate(-90,234,314)"/><rect x="226" y="322" width="16" height="16" transform="rotate(0,234,330)"/><path d="M 226 338v 16h 16v -8a 8 8, 0, 0, 0, -8 -8" transform="rotate(90,234,346)"/><rect x="226" y="370" width="16" height="16" transform="rotate(0,234,378)"/><path d="M 226 402v 16h 8a 8 8, 0, 0, 0, 0 -16" transform="rotate(-90,234,410)"/><path d="M 226 418v 16h 16v -8a 8 8, 0, 0, 0, -8 -8" transform="rotate(90,234,426)"/><path d="M 226 450v 16h 16v -8a 8 8, 0, 0, 0, -8 -8" transform="rotate(0,234,458)"/><path d="M 226 466v 16h 8a 8 8, 0, 0, 0, 0 -16" transform="rotate(90,234,474)"/><circle cx="250" cy="42" r="8" transform="rotate(0,250,42)"/><rect x="242" y="66" width="16" height="16" transform="rotate(0,250,74)"/><rect x="242" y="98" width="16" height="16" transform="rotate(0,250,106)"/><rect x="242" y="114" width="16" height="16" transform="rotate(0,250,122)"/><rect x="242" y="130" width="16" height="16" transform="rotate(0,250,138)"/><path d="M 242 146v 16h 8a 8 8, 0, 0, 0, 0 -16" transform="rotate(90,250,154)"/><path d="M 242 178v 16h 8a 8 8, 0, 0, 0, 0 -16" transform="rotate(0,250,186)"/><path d="M 242 226v 16h 8a 8 8, 0, 0, 0, 0 -16" transform="rotate(0,250,234)"/><rect x="242" y="306" width="16" height="16" transform="rotate(0,250,314)"/><rect x="242" y="370" width="16" height="16" transform="rotate(0,250,378)"/><path d="M 242 386v 16h 8a 8 8, 0, 0, 0, 0 -16" transform="rotate(90,250,394)"/><circle cx="266" cy="26" r="8" transform="rotate(0,266,26)"/><path d="M 258 66v 16h 16v -8a 8 8, 0, 0, 0, -8 -8" transform="rotate(0,266,74)"/><rect x="258" y="82" width="16" height="16" transform="rotate(0,266,90)"/><rect x="258" y="98" width="16" height="16" transform="rotate(0,266,106)"/><path d="M 258 162v 16h 8a 8 8, 0, 0, 0, 0 -16" transform="rotate(180,266,170)"/><path d="M 258 242v 16h 8a 8 8, 0, 0, 0, 0 -16" transform="rotate(-90,266,250)"/><rect x="258" y="258" width="16" height="16" transform="rotate(0,266,266)"/><path d="M 258 274v 16h 8a 8 8, 0, 0, 0, 0 -16" transform="rotate(90,266,282)"/><path d="M 258 306v 16h 8a 8 8, 0, 0, 0, 0 -16" transform="rotate(0,266,314)"/><path d="M 258 338v 16h 8a 8 8, 0, 0, 0, 0 -16" transform="rotate(180,266,346)"/><path d="M 258 370v 16h 8a 8 8, 0, 0, 0, 0 -16" transform="rotate(0,266,378)"/><path d="M 258 402v 16h 8a 8 8, 0, 0, 0, 0 -16" transform="rotate(-90,266,410)"/><rect x="258" y="418" width="16" height="16" transform="rotate(0,266,426)"/><rect x="258" y="434" width="16" height="16" transform="rotate(0,266,442)"/><path d="M 258 450v 16h 8a 8 8, 0, 0, 0, 0 -16" transform="rotate(90,266,458)"/><rect x="274" y="82" width="16" height="16" transform="rotate(0,282,90)"/><rect x="274" y="98" width="16" height="16" transform="rotate(0,282,106)"/><rect x="274" y="114" width="16" height="16" transform="rotate(0,282,122)"/><path d="M 274 130v 16h 8a 8 8, 0, 0, 0, 0 -16" transform="rotate(90,282,138)"/><rect x="274" y="162" width="16" height="16" transform="rotate(0,282,170)"/><rect x="274" y="178" width="16" height="16" transform="rotate(0,282,186)"/><rect x="274" y="194" width="16" height="16" transform="rotate(0,282,202)"/><rect x="274" y="210" width="16" height="16" transform="rotate(0,282,218)"/><path d="M 274 226v 16h 16v -8a 8 8, 0, 0, 0, -8 -8" transform="rotate(180,282,234)"/><path d="M 274 258v 16h 8a 8 8, 0, 0, 0, 0 -16" transform="rotate(0,282,266)"/><circle cx="282" cy="298" r="8" transform="rotate(0,282,298)"/><rect x="274" y="338" width="16" height="16" transform="rotate(0,282,346)"/><path d="M 274 386v 16h 8a 8 8, 0, 0, 0, 0 -16" transform="rotate(180,282,394)"/><rect x="274" y="418" width="16" height="16" transform="rotate(0,282,426)"/><rect x="274" y="434" width="16" height="16" transform="rotate(0,282,442)"/><path d="M 274 466v 16h 8a 8 8, 0, 0, 0, 0 -16" transform="rotate(180,282,474)"/><path d="M 290 18v 16h 16v -8a 8 8, 0, 0, 0, -8 -8" transform="rotate(-90,298,26)"/><path d="M 290 34v 16h 16v -8a 8 8, 0, 0, 0, -8 -8" transform="rotate(180,298,42)"/><path d="M 290 66v 16h 8a 8 8, 0, 0, 0, 0 -16" transform="rotate(-90,298,74)"/><rect x="290" y="82" width="16" height="16" transform="rotate(0,298,90)"/><path d="M 290 98v 16h 16v -8a 8 8, 0, 0, 0, -8 -8" transform="rotate(90,298,106)"/><rect x="290" y="162" width="16" height="16" transform="rotate(0,298,170)"/><rect x="290" y="178" width="16" height="16" transform="rotate(0,298,186)"/><rect x="290" y="210" width="16" height="16" transform="rotate(0,298,218)"/><rect x="290" y="226" width="16" height="16" transform="rotate(0,298,234)"/><path d="M 290 274v 16h 8a 8 8, 0, 0, 0, 0 -16" transform="rotate(180,298,282)"/><path d="M 290 322v 16h 16v -8a 8 8, 0, 0, 0, -8 -8" transform="rotate(-90,298,330)"/><rect x="290" y="338" width="16" height="16" transform="rotate(0,298,346)"/><path d="M 290 370v 16h 8a 8 8, 0, 0, 0, 0 -16" transform="rotate(-90,298,378)"/><rect x="290" y="386" width="16" height="16" transform="rotate(0,298,394)"/><rect x="290" y="402" width="16" height="16" transform="rotate(0,298,410)"/><rect x="290" y="418" width="16" height="16" transform="rotate(0,298,426)"/><path d="M 290 434v 16h 16v -8a 8 8, 0, 0, 0, -8 -8" transform="rotate(90,298,442)"/><rect x="290" y="466" width="16" height="16" transform="rotate(0,298,474)"/><rect x="306" y="18" width="16" height="16" transform="rotate(0,314,26)"/><rect x="306" y="34" width="16" height="16" transform="rotate(0,314,42)"/><path d="M 306 50v 16h 16v -8a 8 8, 0, 0, 0, -8 -8" transform="rotate(180,314,58)"/><path d="M 306 114v 16h 8a 8 8, 0, 0, 0, 0 -16" transform="rotate(-90,314,122)"/><rect x="306" y="130" width="16" height="16" transform="rotate(0,314,138)"/><rect x="306" y="146" width="16" height="16" transform="rotate(0,314,154)"/><rect x="306" y="162" width="16" height="16" transform="rotate(0,314,170)"/><path d="M 306 178v 16h 16v -8a 8 8, 0, 0, 0, -8 -8" transform="rotate(90,314,186)"/><path d="M 306 210v 16h 16v -8a 8 8, 0, 0, 0, -8 -8" transform="rotate(0,314,218)"/><path d="M 306 226v 16h 16v -8a 8 8, 0, 0, 0, -8 -8" transform="rotate(90,314,234)"/><rect x="306" y="274" width="16" height="16" transform="rotate(0,314,282)"/><path d="M 306 290v 16h 8a 8 8, 0, 0, 0, 0 -16" transform="rotate(90,314,298)"/><rect x="306" y="322" width="16" height="16" transform="rotate(0,314,330)"/><rect x="306" y="338" width="16" height="16" transform="rotate(0,314,346)"/><rect x="306" y="402" width="16" height="16" transform="rotate(0,314,410)"/><rect x="306" y="418" width="16" height="16" transform="rotate(0,314,426)"/><rect x="306" y="466" width="16" height="16" transform="rotate(0,314,474)"/><rect x="322" y="18" width="16" height="16" transform="rotate(0,330,26)"/><path d="M 322 50v 16h 8a 8 8, 0, 0, 0, 0 -16" transform="rotate(0,330,58)"/><path d="M 322 82v 16h 8a 8 8, 0, 0, 0, 0 -16" transform="rotate(180,330,90)"/><path d="M 322 130v 16h 8a 8 8, 0, 0, 0, 0 -16" transform="rotate(0,330,138)"/><rect x="322" y="162" width="16" height="16" transform="rotate(0,330,170)"/><path d="M 322 242v 16h 8a 8 8, 0, 0, 0, 0 -16" transform="rotate(-90,330,250)"/><rect x="322" y="258" width="16" height="16" transform="rotate(0,330,266)"/><rect x="322" y="274" width="16" height="16" transform="rotate(0,330,282)"/><path d="M 322 322v 16h 16v -8a 8 8, 0, 0, 0, -8 -8" transform="rotate(0,330,330)"/><rect x="322" y="338" width="16" height="16" transform="rotate(0,330,346)"/><rect x="322" y="354" width="16" height="16" transform="rotate(0,330,362)"/><rect x="322" y="370" width="16" height="16" transform="rotate(0,330,378)"/><rect x="322" y="386" width="16" height="16" transform="rotate(0,330,394)"/><rect x="322" y="402" width="16" height="16" transform="rotate(0,330,410)"/><path d="M 322 418v 16h 16v -8a 8 8, 0, 0, 0, -8 -8" transform="rotate(90,330,426)"/><path d="M 322 450v 16h 8a 8 8, 0, 0, 0, 0 -16" transform="rotate(-90,330,458)"/><rect x="322" y="466" width="16" height="16" transform="rotate(0,330,474)"/><path d="M 338 18v 16h 8a 8 8, 0, 0, 0, 0 -16" transform="rotate(0,346,26)"/><path d="M 338 82v 16h 8a 8 8, 0, 0, 0, 0 -16" transform="rotate(0,346,90)"/><circle cx="346" cy="122" r="8" transform="rotate(0,346,122)"/><path d="M 338 146v 16h 16v -8a 8 8, 0, 0, 0, -8 -8" transform="rotate(-90,346,154)"/><path d="M 338 162v 16h 16v -8a 8 8, 0, 0, 0, -8 -8" transform="rotate(90,346,170)"/><path d="M 338 194v 16h 8a 8 8, 0, 0, 0, 0 -16" transform="rotate(180,346,202)"/><path d="M 338 274v 16h 16v -8a 8 8, 0, 0, 0, -8 -8" transform="rotate(0,346,282)"/><path d="M 338 290v 16h 8a 8 8, 0, 0, 0, 0 -16" transform="rotate(90,346,298)"/><rect x="338" y="338" width="16" height="16" transform="rotate(0,346,346)"/><rect x="338" y="354" width="16" height="16" transform="rotate(0,346,362)"/><rect x="338" y="370" width="16" height="16" transform="rotate(0,346,378)"/><rect x="338" y="386" width="16" height="16" transform="rotate(0,346,394)"/><rect x="338" y="402" width="16" height="16" transform="rotate(0,346,410)"/><path d="M 338 434v 16h 8a 8 8, 0, 0, 0, 0 -16" transform="rotate(180,346,442)"/><path d="M 338 466v 16h 8a 8 8, 0, 0, 0, 0 -16" transform="rotate(0,346,474)"/><rect x="354" y="146" width="16" height="16" transform="rotate(0,362,154)"/><path d="M 354 178v 16h 16v -8a 8 8, 0, 0, 0, -8 -8" transform="rotate(-90,362,186)"/><rect x="354" y="194" width="16" height="16" transform="rotate(0,362,202)"/><rect x="354" y="210" width="16" height="16" transform="rotate(0,362,218)"/><rect x="354" y="226" width="16" height="16" transform="rotate(0,362,234)"/><rect x="354" y="242" width="16" height="16" transform="rotate(0,362,250)"/><path d="M 354 258v 16h 16v -8a 8 8, 0, 0, 0, -8 -8" transform="rotate(180,362,266)"/><path d="M 354 306v 16h 16v -8a 8 8, 0, 0, 0, -8 -8" transform="rotate(-90,362,314)"/><rect x="354" y="322" width="16" height="16" transform="rotate(0,362,330)"/><rect x="354" y="338" width="16" height="16" transform="rotate(0,362,346)"/><rect x="354" y="402" width="16" height="16" transform="rotate(0,362,410)"/><rect x="354" y="418" width="16" height="16" transform="rotate(0,362,426)"/><path d="M 354 434v 16h 16v -8a 8 8, 0, 0, 0, -8 -8" transform="rotate(90,362,442)"/><path d="M 370 146v 16h 8a 8 8, 0, 0, 0, 0 -16" transform="rotate(0,378,154)"/><rect x="370" y="178" width="16" height="16" transform="rotate(0,378,186)"/><rect x="370" y="210" width="16" height="16" transform="rotate(0,378,218)"/><path d="M 370 242v 16h 16v -8a 8 8, 0, 0, 0, -8 -8" transform="rotate(0,378,250)"/><rect x="370" y="258" width="16" height="16" transform="rotate(0,378,266)"/><path d="M 370 274v 16h 8a 8 8, 0, 0, 0, 0 -16" transform="rotate(90,378,282)"/><rect x="370" y="306" width="16" height="16" transform="rotate(0,378,314)"/><rect x="370" y="322" width="16" height="16" transform="rotate(0,378,330)"/><rect x="370" y="338" width="16" height="16" transform="rotate(0,378,346)"/><circle cx="378" cy="378" r="8" transform="rotate(0,378,378)"/><rect x="370" y="402" width="16" height="16" transform="rotate(0,378,410)"/><path d="M 386 162v 16h 16v -8a 8 8, 0, 0, 0, -8 -8" transform="rotate(-90,394,170)"/><rect x="386" y="178" width="16" height="16" transform="rotate(0,394,186)"/><rect x="386" y="194" width="16" height="16" transform="rotate(0,394,202)"/><rect x="386" y="210" width="16" height="16" transform="rotate(0,394,218)"/><rect x="386" y="306" width="16" height="16" transform="rotate(0,394,314)"/><rect x="386" y="322" width="16" height="16" transform="rotate(0,394,330)"/><rect x="386" y="338" width="16" height="16" transform="rotate(0,394,346)"/><rect x="386" y="402" width="16" height="16" transform="rotate(0,394,410)"/><path d="M 386 418v 16h 8a 8 8, 0, 0, 0, 0 -16" transform="rotate(90,394,426)"/><rect x="402" y="162" width="16" height="16" transform="rotate(0,410,170)"/><path d="M 402 178v 16h 16v -8a 8 8, 0, 0, 0, -8 -8" transform="rotate(90,410,186)"/><rect x="402" y="210" width="16" height="16" transform="rotate(0,410,218)"/><path d="M 402 226v 16h 8a 8 8, 0, 0, 0, 0 -16" transform="rotate(90,410,234)"/><path d="M 402 258v 16h 8a 8 8, 0, 0, 0, 0 -16" transform="rotate(-90,410,266)"/><path d="M 402 274v 16h 8a 8 8, 0, 0, 0, 0 -16" transform="rotate(90,410,282)"/><rect x="402" y="306" width="16" height="16" transform="rotate(0,410,314)"/><rect x="402" y="322" width="16" height="16" transform="rotate(0,410,330)"/><rect x="402" y="338" width="16" height="16" transform="rotate(0,410,346)"/><rect x="402" y="354" width="16" height="16" transform="rotate(0,410,362)"/><rect x="402" y="370" width="16" height="16" transform="rotate(0,410,378)"/><rect x="402" y="386" width="16" height="16" transform="rotate(0,410,394)"/><path d="M 402 402v 16h 16v -8a 8 8, 0, 0, 0, -8 -8" transform="rotate(90,410,410)"/><circle cx="410" cy="474" r="8" transform="rotate(0,410,474)"/><path d="M 418 162v 16h 8a 8 8, 0, 0, 0, 0 -16" transform="rotate(0,426,170)"/><rect x="418" y="210" width="16" height="16" transform="rotate(0,426,218)"/><path d="M 418 290v 16h 16v -8a 8 8, 0, 0, 0, -8 -8" transform="rotate(-90,426,298)"/><rect x="418" y="306" width="16" height="16" transform="rotate(0,426,314)"/><rect x="418" y="322" width="16" height="16" transform="rotate(0,426,330)"/><rect x="418" y="338" width="16" height="16" transform="rotate(0,426,346)"/><rect x="418" y="386" width="16" height="16" transform="rotate(0,426,394)"/><path d="M 418 418v 16h 8a 8 8, 0, 0, 0, 0 -16" transform="rotate(-90,426,426)"/><rect x="418" y="434" width="16" height="16" transform="rotate(0,426,442)"/><path d="M 418 450v 16h 16v -8a 8 8, 0, 0, 0, -8 -8" transform="rotate(180,426,458)"/><circle cx="442" cy="186" r="8" transform="rotate(0,442,186)"/><rect x="434" y="210" width="16" height="16" transform="rotate(0,442,218)"/><path d="M 434 226v 16h 16v -8a 8 8, 0, 0, 0, -8 -8" transform="rotate(180,442,234)"/><path d="M 434 258v 16h 16v -8a 8 8, 0, 0, 0, -8 -8" transform="rotate(-90,442,266)"/><rect x="434" y="274" width="16" height="16" transform="rotate(0,442,282)"/><path d="M 434 290v 16h 16v -8a 8 8, 0, 0, 0, -8 -8" transform="rotate(90,442,298)"/><path d="M 434 322v 16h 16v -8a 8 8, 0, 0, 0, -8 -8" transform="rotate(0,442,330)"/><rect x="434" y="338" width="16" height="16" transform="rotate(0,442,346)"/><rect x="434" y="354" width="16" height="16" transform="rotate(0,442,362)"/><rect x="434" y="370" width="16" height="16" transform="rotate(0,442,378)"/><rect x="434" y="386" width="16" height="16" transform="rotate(0,442,394)"/><path d="M 434 402v 16h 16v -8a 8 8, 0, 0, 0, -8 -8" transform="rotate(180,442,410)"/><rect x="434" y="434" width="16" height="16" transform="rotate(0,442,442)"/><path d="M 434 450v 16h 16v -8a 8 8, 0, 0, 0, -8 -8" transform="rotate(90,442,458)"/><circle cx="458" cy="154" r="8" transform="rotate(0,458,154)"/><rect x="450" y="210" width="16" height="16" transform="rotate(0,458,218)"/><rect x="450" y="226" width="16" height="16" transform="rotate(0,458,234)"/><path d="M 450 258v 16h 8a 8 8, 0, 0, 0, 0 -16" transform="rotate(0,458,266)"/><circle cx="458" cy="314" r="8" transform="rotate(0,458,314)"/><rect x="450" y="402" width="16" height="16" transform="rotate(0,458,410)"/><rect x="450" y="418" width="16" height="16" transform="rotate(0,458,426)"/><rect x="450" y="434" width="16" height="16" transform="rotate(0,458,442)"/><circle cx="458" cy="474" r="8" transform="rotate(0,458,474)"/><path d="M 466 178v 16h 8a 8 8, 0, 0, 0, 0 -16" transform="rotate(-90,474,186)"/><rect x="466" y="194" width="16" height="16" transform="rotate(0,474,202)"/><rect x="466" y="210" width="16" height="16" transform="rotate(0,474,218)"/><path d="M 466 226v 16h 16v -8a 8 8, 0, 0, 0, -8 -8" transform="rotate(90,474,234)"/><circle cx="474" cy="298" r="8" transform="rotate(0,474,298)"/><circle cx="474" cy="330" r="8" transform="rotate(0,474,330)"/><path d="M 466 402v 16h 8a 8 8, 0, 0, 0, 0 -16" transform="rotate(0,474,410)"/><path d="M 466 434v 16h 8a 8 8, 0, 0, 0, 0 -16" transform="rotate(0,474,442)"/></clipPath><clipPath id="clip-path-corners-square-color-0-0"><path clip-rule="evenodd" d="M 18 58v 32a 40 40, 0, 0, 0, 40 40h 32a 40 40, 0, 0, 0, 40 -40v -32a 40 40, 0, 0, 0, -40 -40h -32a 40 40, 0, 0, 0, -40 40M 58 34h 32a 24 24, 0, 0, 1, 24 24v 32a 24 24, 0, 0, 1, -24 24h -32a 24 24, 0, 0, 1, -24 -24v -32a 24 24, 0, 0, 1, 24 -24" transform="rotate(0,74,74)"/></clipPath><clipPath id="clip-path-corners-dot-color-0-0"><circle cx="74" cy="74" r="24" transform="rotate(0,74,74)"/></clipPath><clipPath id="clip-path-corners-square-color-1-0"><path clip-rule="evenodd" d="M 370 58v 32a 40 40, 0, 0, 0, 40 40h 32a 40 40, 0, 0, 0, 40 -40v -32a 40 40, 0, 0, 0, -40 -40h -32a 40 40, 0, 0, 0, -40 40M 410 34h 32a 24 24, 0, 0, 1, 24 24v 32a 24 24, 0, 0, 1, -24 24h -32a 24 24, 0, 0, 1, -24 -24v -32a 24 24, 0, 0, 1, 24 -24" transform="rotate(90,426,74)"/></clipPath><clipPath id="clip-path-corners-dot-color-1-0"><circle cx="426" cy="74" r="24" transform="rotate(90,426,74)"/></clipPath><clipPath id="clip-path-corners-square-color-0-1"><path clip-rule="evenodd" d="M 18 410v 32a 40 40, 0, 0, 0, 40 40h 32a 40 40, 0, 0, 0, 40 -40v -32a 40 40, 0, 0, 0, -40 -40h -32a 40 40, 0, 0, 0, -40 40M 58 386h 32a 24 24, 0, 0, 1, 24 24v 32a 24 24, 0, 0, 1, -24 24h -32a 24 24, 0, 0, 1, -24 -24v -32a 24 24, 0, 0, 1, 24 -24" transform="rotate(-90,74,426)"/></clipPath><clipPath id="clip-path-corners-dot-color-0-1"><circle cx="74" cy="426" r="24" transform="rotate(-90,74,426)"/></clipPath></defs><rect x="0" y="0" height="500" width="500" clip-path="url('#clip-path-background-color')" fill="#fff"/><rect x="0" y="0" height="500" width="500" clip-path="url('#clip-path-dot-color')" fill="#18417E"/><rect x="18" y="18" height="112" width="112" clip-path="url('#clip-path-corners-square-color-0-0')" fill="#18417E"/><rect x="50" y="50" height="48" width="48" clip-path="url('#clip-path-corners-dot-color-0-0')" fill="#18417E"/><rect x="370" y="18" height="112" width="112" clip-path="url('#clip-path-corners-square-color-1-0')" fill="#18417E"/><rect x="402" y="50" height="48" width="48" clip-path="url('#clip-path-corners-dot-color-1-0')" fill="#18417E"/><rect x="18" y="370" height="112" width="112" clip-path="url('#clip-path-corners-square-color-0-1')" fill="#18417E"/><rect x="50" y="402" height="48" width="48" clip-path="url('#clip-path-corners-dot-color-0-1')" fill="#18417E"/></svg>